<svg xmlns="http://www.w3.org/2000/svg" viewBox="0 0 650 350" id="empty-box"><g transform="translate(0, -85)"><circle cx="337.969" cy="256" r="167.695" fill="#fff"></circle><path fill="#fff" d="M564.58343,220.90338V202.7937a13.02087,13.02087,0,0,0-13.02086-13.02087H505.60333A13.02086,13.02086,0,0,1,492.58247,176.752V158.64229a13.02087,13.02087,0,0,1,13.02086-13.02087h1.45112a13.02087,13.02087,0,0,0,13.02086-13.02087V114.49087A13.02087,13.02087,0,0,0,507.05445,101.47H173.13523a13.02087,13.02087,0,0,0-13.02087,13.02087v18.10968a13.02087,13.02087,0,0,0,13.02087,13.02087h0a13.02087,13.02087,0,0,1,13.02086,13.02087V176.752a13.02086,13.02086,0,0,1-13.02086,13.02086H122.7824a13.02087,13.02087,0,0,0-13.02087,13.02087v18.10968a13.02087,13.02087,0,0,0,13.02087,13.02087h19.75769A13.02087,13.02087,0,0,1,155.561,246.94512v18.10976a13.02087,13.02087,0,0,1-13.02086,13.02087h-.04775a13.02087,13.02087,0,0,0-13.02087,13.02087v18.10959a13.02087,13.02087,0,0,0,13.02087,13.02087h2.85852A13.02087,13.02087,0,0,1,158.37173,335.248v18.10976a13.02087,13.02087,0,0,1-13.02087,13.02087H98.43743a13.02087,13.02087,0,0,0-13.02086,13.02087v18.10968A13.02087,13.02087,0,0,0,98.43743,410.53H514.045a13.02087,13.02087,0,0,0,13.02087-13.02087V379.39945A13.02087,13.02087,0,0,0,514.045,366.37858H502.75526a13.02087,13.02087,0,0,1-13.02087-13.02087V335.248a13.02087,13.02087,0,0,1,13.02087-13.02087h26.62008a13.02087,13.02087,0,0,0,13.02087-13.02087V291.09662a13.02087,13.02087,0,0,0-13.02087-13.02087h-8.07529a13.02087,13.02087,0,0,1-13.02087-13.02087V246.94512a13.02087,13.02087,0,0,1,13.02087-13.02087h30.26252A13.02087,13.02087,0,0,0,564.58343,220.90338Z"></path><line x1="384.775" x2="417.077" y1="92.159" y2="92.159" fill="none" stroke="#9FBAAE" stroke-linecap="round" stroke-miterlimit="10" stroke-width="3"></line><line x1="384.775" x2="417.077" y1="101.47" y2="101.47" fill="none" stroke="#9FBAAE" stroke-linecap="round" stroke-miterlimit="10" stroke-width="3"></line><line x1="384.775" x2="417.077" y1="110.781" y2="110.781" fill="none" stroke="#9FBAAE" stroke-linecap="round" stroke-miterlimit="10" stroke-width="3"></line><line x1="119.153" x2="151.456" y1="289.908" y2="289.908" fill="none" stroke="#9FBAAE" stroke-linecap="round" stroke-miterlimit="10" stroke-width="3"></line><line x1="119.153" x2="151.456" y1="299.218" y2="299.218" fill="none" stroke="#9FBAAE" stroke-linecap="round" stroke-miterlimit="10" stroke-width="3"></line><line x1="119.153" x2="151.456" y1="308.529" y2="308.529" fill="none" stroke="#9FBAAE" stroke-linecap="round" stroke-miterlimit="10" stroke-width="3"></line><line x1="505.663" x2="537.966" y1="375.236" y2="375.236" fill="none" stroke="#9FBAAE" stroke-linecap="round" stroke-miterlimit="10" stroke-width="3"></line><line x1="505.663" x2="537.966" y1="384.546" y2="384.546" fill="none" stroke="#9FBAAE" stroke-linecap="round" stroke-miterlimit="10" stroke-width="3"></line><line x1="505.663" x2="537.966" y1="393.857" y2="393.857" fill="none" stroke="#9FBAAE" stroke-linecap="round" stroke-miterlimit="10" stroke-width="3"></line><circle cx="546.78" cy="202.347" r="13.807" fill="#9FBAAE"></circle><circle cx="510.344" cy="212.312" r="7.159" fill="#9FBAAE"></circle><circle cx="528.523" cy="168.562" r="10.228" fill="#9FBAAE"></circle><circle cx="164.38" cy="389.402" r="16.428" fill="#9FBAAE"></circle><circle cx="131.897" cy="397.598" r="8.557" fill="#9FBAAE"></circle><circle cx="121.847" cy="369.192" r="4.936" fill="#9FBAAE"></circle><circle cx="146.321" cy="356.549" r="11.833" fill="#9FBAAE"></circle><circle cx="250.43" cy="135.463" r="16.428" fill="#9FBAAE"></circle><circle cx="251.096" cy="101.968" r="8.557" fill="#9FBAAE"></circle><circle cx="308.091" cy="106.968" r="7.406" fill="#9FBAAE"></circle><circle cx="281.147" cy="99.771" r="4.936" fill="#9FBAAE"></circle><circle cx="286.883" cy="126.713" r="11.833" fill="#9FBAAE"></circle><polygon fill="#F4C550" points="483.963 291.561 374.753 350.388 374.753 216.949 483.963 182.855 483.963 291.561"></polygon><path fill="#FFDC86" d="M374.7531,216.94926l-128.92075-13.042-26.42178-38.98094a3,3,0,0,1,2.4833-4.68321H343.33871a3,3,0,0,1,2.65955,1.61192Z"></path><path fill="#FFDC86" d="M245.83235 337.34632L200.80822 327.978a3 3 0 01-2.38887-2.93709V197.73033a3 3 0 013.61113-2.93709l43.80187 9.114zM418.21848 364.85872L374.7531 350.38835V216.94926l45.36062 15.10133a3 3 0 012.05238 2.84641V362.01231A3 3 0 01418.21848 364.85872z"></path><polygon fill="#295761" points="374.753 350.388 245.832 337.346 245.832 203.907 374.753 216.949 374.753 350.388"></polygon><path fill="#FFDC86" d="M341.97,386.09125l-131.54367-5.24868,35.406-43.49625,128.92075,13.042-30.40766,34.683A3,3,0,0,1,341.97,386.09125Z"></path><polygon fill="#F4C550" points="374.753 216.949 483.963 182.855 350.473 170.429 374.753 216.949"></polygon><polygon fill="#183E49" points="245.832 337.346 374.753 277.148 374.753 216.949 245.832 203.907 245.832 337.346"></polygon></g></svg>